# xmcd
#
# Track frame offsets: 
#        150
#        15580
#        29257
#        46835
#        61412
#        79785
#        94700
#        109957
#        127482
#        143180
#        164230
#        181975
#        196987
#        214867
#        244255
#
# Disc length: 4440 seconds
#
# Revision: 2
# Processed by: cddbd v1.5.2PL0 Copyright (c) Steve Scherf et al.
# Submitted via: ExactAudioCopyFreeDBPlugin 1.0
#
DISCID=dc11560f
DTITLE=Patrick Nuo - Welcome
DYEAR=2003
DGENRE=Pop
TTITLE0=5 Days
TTITLE1=Be Careful Not To Be Too Careful
TTITLE2=Welcome To My Little Island
TTITLE3=Reanimate
TTITLE4=The Air That I Breathe
TTITLE5=Crazy
TTITLE6=This Ain't Over
TTITLE7=Rainbow Love
TTITLE8=Here We Come Again
TTITLE9=I Can't Tell
TTITLE10=I Believe
TTITLE11=Unknown Girl
TTITLE12=Gone
TTITLE13=To Be Continued...
TTITLE14=Data Track
EXTD=YEAR: 2003
EXTT0=
EXTT1=
EXTT2=
EXTT3=
EXTT4=
EXTT5=
EXTT6=
EXTT7=
EXTT8=
EXTT9=
EXTT10=
EXTT11=
EXTT12=
EXTT13=
EXTT14=
PLAYORDER=
